<svg xmlns="http://www.w3.org/2000/svg" viewBox="0 0 36 45" x="0px" y="0px"><title>Монтажная область 72</title><path d="M34.06,1H1.94A.94.94,0,0,0,1,1.94V34.06a.94.94,0,0,0,.94.94H34.06a.94.94,0,0,0,.94-.94V1.94A.94.94,0,0,0,34.06,1ZM18.94,33.11V30.28a.94.94,0,1,0-1.88,0v2.83H2.89V24.58l8.49,0h0a.95.95,0,0,0,0-1.89l-8.5,0V2.89H11.3l.09,9.45a1,1,0,0,0,.94.94h0a1,1,0,0,0,.94-1l-.09-9.43H33.11v8.5H18a.94.94,0,0,0-.94.94V23.67a.94.94,0,0,0,1.88,0V13.28H33.11V33.11Z"/><text x="0" y="51" fill="#000000" font-size="5px" font-weight="bold" font-family="'Helvetica Neue', Helvetica, Arial-Unicode, Arial, Sans-serif">Created by Vadim Solomakhin</text><text x="0" y="56" fill="#000000" font-size="5px" font-weight="bold" font-family="'Helvetica Neue', Helvetica, Arial-Unicode, Arial, Sans-serif">from the Noun Project</text></svg>